<svg width="234" height="61" viewBox="0 0 234 61" fill="none" xmlns="http://www.w3.org/2000/svg">
<g clip-path="url(#clip0_242_435)">
<path fill-rule="evenodd" clip-rule="evenodd" d="M31.3333 12.25H47V42H0V0H31.3333V12.25ZM13.7083 33.25H9.79167V40.25H13.7083V33.25ZM21.5417 33.25H17.625V40.25H21.5417V33.25ZM35.25 33.25H31.3333V40.25H35.25V33.25ZM43.0833 15.75H31.3333V29.75H39.1667V38.5H43.0833V15.75ZM27.4167 3.5H3.91667V38.5H5.875V29.75H25.4583V38.5H27.4167V3.5ZM11.75 26.25H7.83333V22.75H11.75V26.25ZM17.625 26.25H13.7083V22.75H17.625V26.25ZM23.5 26.25H19.5833V22.75H23.5V26.25ZM39.1667 22.75V26.25H35.25V22.75H39.1667ZM11.75 21H7.83333V17.5H11.75V21ZM17.625 21H13.7083V17.5H17.625V21ZM23.5 21H19.5833V17.5H23.5V21ZM35.25 17.5H39.1667V21H35.25V17.5ZM11.75 15.75H7.83333V12.25H11.75V15.75ZM17.625 15.75H13.7083V12.25H17.625V15.75ZM23.5 15.75H19.5833V12.25H23.5V15.75ZM11.75 10.5H7.83333V7H11.75V10.5ZM17.625 10.5H13.7083V7H17.625V10.5ZM23.5 10.5H19.5833V7H23.5V10.5Z" fill="black"/>
</g>
<defs>
<clipPath id="clip0_242_435">
<rect width="47" height="42" fill="white"/>
</clipPath>
</defs>
</svg>
