<svg width="47" height="43" viewBox="0 0 47 43" fill="none" xmlns="http://www.w3.org/2000/svg">
<g clip-path="url(#clip0_242_269)">
<path fill-rule="evenodd" clip-rule="evenodd" d="M31.3333 12.75H47V42.5H0V0.5H31.3333V12.75ZM13.7083 33.75H9.79167V40.75H13.7083V33.75ZM21.5417 33.75H17.625V40.75H21.5417V33.75ZM35.25 33.75H31.3333V40.75H35.25V33.75ZM43.0833 16.25H31.3333V30.25H39.1667V39H43.0833V16.25ZM27.4167 4H3.91667V39H5.875V30.25H25.4583V39H27.4167V4ZM11.75 26.75H7.83333V23.25H11.75V26.75ZM17.625 26.75H13.7083V23.25H17.625V26.75ZM23.5 26.75H19.5833V23.25H23.5V26.75ZM39.1667 23.25V26.75H35.25V23.25H39.1667ZM11.75 21.5H7.83333V18H11.75V21.5ZM17.625 21.5H13.7083V18H17.625V21.5ZM23.5 21.5H19.5833V18H23.5V21.5ZM35.25 18H39.1667V21.5H35.25V18ZM11.75 16.25H7.83333V12.75H11.75V16.25ZM17.625 16.25H13.7083V12.75H17.625V16.25ZM23.5 16.25H19.5833V12.75H23.5V16.25ZM11.75 11H7.83333V7.5H11.75V11ZM17.625 11H13.7083V7.5H17.625V11ZM23.5 11H19.5833V7.5H23.5V11Z" fill="black"/>
</g>
<defs>
<clipPath id="clip0_242_269">
<rect width="47" height="42" fill="white" transform="translate(0 0.5)"/>
</clipPath>
</defs>
</svg>
